<svg width="36" height="49" viewBox="0 0 36 49" fill="none" xmlns="http://www.w3.org/2000/svg">
<path d="M11.6902 26.4031C11.6902 26.4031 19.5953 17.6983 22.4342 14.5729C22.6994 14.2806 23.0591 14.1168 23.4342 14.1168C23.8093 14.1168 24.169 14.2806 24.4342 14.5729C27.2839 17.7112 35.2425 26.4738 35.2425 26.4738" stroke="#F4F4F4" stroke-miterlimit="1.5" stroke-linecap="round" stroke-linejoin="round"/>
<path d="M32.9043 38.4103C32.9043 38.4103 20.56 38.4107 15.7402 38.4106C14.6935 38.4103 13.8448 37.4757 13.8444 36.3233C13.8447 33.1628 13.8443 27.5289 13.8443 27.5289" stroke="#F4F4F4" stroke-miterlimit="1.5" stroke-linecap="round" stroke-linejoin="round"/>
<path d="M19.8445 11.8231V3.61724C19.8445 2.28003 18.8596 1.19678 17.6448 1.19678C14.0429 1.19678 6.92799 1.19678 3.32617 1.19678C2.11132 1.19678 1.12646 2.28003 1.12646 3.61724C1.12646 10.3489 1.12646 29.2267 1.12646 35.9584C1.12646 37.2956 2.11132 38.3808 3.32617 38.3808C6.13542 38.3808 10.6379 38.3808 10.6379 38.3808" stroke="#F4F4F4" stroke-miterlimit="1.5" stroke-linecap="round" stroke-linejoin="round"/>
</svg>
