<svg width="50" height="50" viewBox="0 0 50 50" fill="none" xmlns="http://www.w3.org/2000/svg">
<path fill-rule="evenodd" clip-rule="evenodd" d="M23.6882 42.8483C23.6184 42.8998 23.5271 42.9131 23.444 42.8832C23.3626 42.8533 23.3012 42.7852 23.2796 42.7005C22.9673 41.443 21.9623 37.4131 21.6267 36.0626C21.6035 35.9712 21.6317 35.8732 21.6998 35.8068C21.7679 35.7403 21.8659 35.7154 21.9573 35.742C22.5038 35.8948 23.4274 36.154 23.9573 36.3018C24.0636 36.3317 24.1766 36.3168 24.2696 36.2603C24.3643 36.2038 24.4307 36.1108 24.454 36.0028C24.7729 34.5526 25.8394 29.6805 26.1699 28.1722C26.1932 28.0659 26.1649 27.9546 26.0952 27.8716C26.0237 27.7902 25.9174 27.7453 25.8095 27.752C24.4789 27.8334 20.5536 28.0742 17.9357 28.2354C17.4041 28.2686 16.8942 28.0227 16.5869 27.5875C16.2796 27.154 16.2198 26.5908 16.4291 26.1008C18.4473 21.355 22.9955 10.6689 24.0835 8.11077C24.2281 7.77356 24.5586 7.5543 24.9274 7.55263C26.1699 7.55097 29.0188 7.54434 30.5221 7.54102C30.7297 7.54102 30.9224 7.64898 31.0304 7.82506C31.1384 8.00114 31.1483 8.22041 31.0553 8.40479C29.5503 11.3815 24.6267 21.1257 23.5503 23.2586C23.5055 23.345 23.5121 23.448 23.5636 23.5294C23.6151 23.6091 23.7081 23.6573 23.8045 23.654C25.2912 23.5925 29.9872 23.3965 32.5769 23.2885C32.9374 23.2736 33.2779 23.453 33.4706 23.7586C33.6616 24.0626 33.6766 24.448 33.5071 24.7669C31.8078 27.9712 27.9905 35.1739 27.062 36.9247C27.0088 37.0227 27.0022 37.139 27.0404 37.2437C27.0802 37.3483 27.1616 37.4314 27.2663 37.4712C27.7663 37.6639 28.6085 37.9878 29.165 38.2021C29.2746 38.2453 29.3543 38.3433 29.3693 38.4613C29.3859 38.5792 29.336 38.6955 29.2397 38.7653C28.0038 39.6756 24.7198 42.0892 23.6882 42.8483Z" stroke="#F4F4F4" stroke-miterlimit="1.5" stroke-linecap="round" stroke-linejoin="round"/>
</svg>
