<svg width="55" height="55" viewBox="0 0 55 55" fill="none" xmlns="http://www.w3.org/2000/svg">
<path d="M17.2334 44.638L9.5591 44.583C8.53766 44.5755 7.5413 44.2658 6.69561 43.6929C5.84991 43.12 5.19273 42.3096 4.80689 41.3638C4.42104 40.418 4.3238 39.3791 4.52742 38.3782C4.73104 37.3772 5.22641 36.4589 5.9511 35.739C6.43216 35.258 7.00405 34.8773 7.63351 34.6193C8.26298 34.3612 8.93746 34.2308 9.61776 34.2357L12.7968 34.2577H12.8334C13.7861 34.2558 14.6994 33.8775 15.3744 33.2053L35.7318 12.903C36.0254 12.608 36.3745 12.3742 36.7591 12.215C37.1436 12.0557 37.5559 11.9743 37.9721 11.9754H45.9654C47.3132 12.0112 48.5938 12.5719 49.5344 13.5379C50.475 14.5039 51.0014 15.7989 51.0014 17.1472C51.0014 18.4955 50.475 19.7905 49.5344 20.7565C48.5938 21.7225 47.3132 22.2831 45.9654 22.319H42.3758C41.9026 22.3176 41.4338 22.4099 40.9964 22.5905C40.5591 22.7711 40.1618 23.0365 39.8274 23.3714L19.4921 43.7103C18.8918 44.3065 18.0795 44.6402 17.2334 44.638V44.638ZM9.58843 34.6024C8.31417 34.6033 7.09243 35.1102 6.19174 36.0116C5.29104 36.913 4.7851 38.1351 4.7851 39.4094C4.78792 40.6764 5.28975 41.8914 6.18192 42.7911C7.07409 43.6908 8.28477 44.2029 9.55176 44.2163L17.2261 44.2713C17.97 44.2711 18.6834 43.9757 19.2098 43.45L39.5708 23.1C39.9379 22.73 40.3749 22.4366 40.8565 22.2371C41.3381 22.0375 41.8545 21.9358 42.3758 21.9377H45.9654C47.2169 21.9031 48.4054 21.3817 49.2784 20.4843C50.1513 19.5869 50.6397 18.3844 50.6397 17.1325C50.6397 15.8806 50.1513 14.6781 49.2784 13.7807C48.4054 12.8833 47.2169 12.3619 45.9654 12.3274H37.9721C37.6044 12.3261 37.2401 12.3977 36.9003 12.538C36.5604 12.6784 36.2518 12.8847 35.9921 13.145L15.6311 33.4657C14.8772 34.2077 13.8619 34.6238 12.8041 34.6244L9.62143 34.6024H9.58843Z" stroke="#F4F4F4"/>
<path d="M15.7043 33.3923V27.4267C15.7043 27.1378 15.7613 26.8517 15.8718 26.5848C15.9824 26.3179 16.1444 26.0753 16.3487 25.871C16.553 25.6668 16.7955 25.5047 17.0624 25.3941C17.3294 25.2836 17.6154 25.2267 17.9043 25.2267C18.1933 25.2267 18.4793 25.2836 18.7462 25.3941C19.0132 25.5047 19.2557 25.6668 19.46 25.871C19.6643 26.0753 19.8263 26.3179 19.9369 26.5848C20.0474 26.8517 20.1043 27.1378 20.1043 27.4267V28.8934L20.0567 28.9483C18.9567 30.162 16.83 32.2777 16.0233 33.077L15.7043 33.3923ZM17.9043 25.597C17.4181 25.597 16.9518 25.7902 16.608 26.134C16.2642 26.4778 16.071 26.9441 16.071 27.4303V32.5087C17.0023 31.581 18.7403 29.8357 19.7377 28.7577V27.4267C19.7372 27.1856 19.6892 26.947 19.5964 26.7245C19.5036 26.502 19.3678 26.3 19.1968 26.1301C19.0258 25.9601 18.823 25.8256 18.6 25.7341C18.377 25.6426 18.1381 25.5961 17.897 25.597H17.9043Z" stroke="#F4F4F4"/>
<path d="M17.8971 24.1597C17.5345 24.1597 17.18 24.0522 16.8785 23.8507C16.577 23.6493 16.342 23.363 16.2033 23.028C16.0645 22.693 16.0282 22.3243 16.0989 21.9687C16.1697 21.6131 16.3443 21.2864 16.6007 21.03C16.8571 20.7736 17.1838 20.599 17.5394 20.5283C17.895 20.4575 18.2636 20.4938 18.5986 20.6326C18.9336 20.7714 19.22 21.0063 19.4214 21.3078C19.6229 21.6093 19.7304 21.9638 19.7304 22.3264C19.7304 22.8126 19.5372 23.2789 19.1934 23.6227C18.8496 23.9666 18.3833 24.1597 17.8971 24.1597ZM17.8971 20.8597C17.607 20.8597 17.3234 20.9457 17.0822 21.1069C16.841 21.268 16.653 21.4971 16.542 21.7651C16.431 22.0331 16.402 22.328 16.4586 22.6125C16.5152 22.897 16.6548 23.1583 16.86 23.3635C17.0651 23.5686 17.3264 23.7083 17.6109 23.7649C17.8954 23.8215 18.1903 23.7924 18.4583 23.6814C18.7263 23.5704 18.9554 23.3824 19.1165 23.1412C19.2777 22.9 19.3637 22.6165 19.3637 22.3264C19.3657 22.1325 19.3292 21.9402 19.2563 21.7606C19.1835 21.581 19.0758 21.4175 18.9394 21.2798C18.803 21.142 18.6406 21.0327 18.4617 20.9581C18.2828 20.8835 18.0909 20.845 17.8971 20.845V20.8597Z" stroke="#F4F4F4"/>
</svg>
