<svg width="16" height="16" viewBox="0 0 16 16" fill="none" xmlns="http://www.w3.org/2000/svg">
<circle cx="8" cy="8" r="7.5" stroke="#F4F4F4"/>
<path d="M9.052 4.68C8.732 4.68 8.58 4.536 8.596 4.248C8.612 3.872 8.816 3.684 9.208 3.684C9.528 3.684 9.68 3.828 9.664 4.116C9.648 4.492 9.444 4.68 9.052 4.68ZM7.864 12.072C7.616 12.072 7.516 11.928 7.564 11.64L8.38 6.468C8.42 6.22 8.56 6.096 8.8 6.096C9.048 6.096 9.148 6.24 9.1 6.528L8.284 11.712C8.244 11.952 8.104 12.072 7.864 12.072Z" fill="#F4F4F4"/>
</svg>
