<svg width="55" height="55" viewBox="0 0 55 55" fill="none" xmlns="http://www.w3.org/2000/svg">
<path d="M43.4574 46.2879H11.4254C10.827 46.2879 10.2531 46.0505 9.82959 45.6277C9.40611 45.2049 9.16772 44.6313 9.16675 44.0329V12.7123C9.16772 12.1145 9.40561 11.5415 9.82829 11.1188C10.251 10.6961 10.824 10.4582 11.4217 10.4573H43.4537C44.0515 10.4582 44.6245 10.6961 45.0472 11.1188C45.4699 11.5415 45.7078 12.1145 45.7087 12.7123V44.0329C45.7078 44.6301 45.4704 45.2025 45.0485 45.6251C44.6266 46.0477 44.0545 46.286 43.4574 46.2879V46.2879ZM11.4254 10.8239C10.9243 10.8239 10.4436 11.0228 10.0889 11.3768C9.73415 11.7308 9.53439 12.2111 9.53341 12.7123V44.0329C9.53438 44.5335 9.73364 45.0132 10.0876 45.3671C10.4415 45.721 10.9212 45.9203 11.4217 45.9213H43.4537C43.9543 45.9203 44.434 45.721 44.7879 45.3671C45.1419 45.0132 45.3411 44.5335 45.3421 44.0329V12.7123C45.3411 12.2118 45.1419 11.732 44.7879 11.3781C44.434 11.0242 43.9543 10.8249 43.4537 10.8239H11.4254Z" stroke="#F4F4F4"/>
<path d="M25.6667 46.288H11.9241V14.795C11.9241 14.4061 12.0786 14.033 12.3536 13.7579C12.6287 13.4829 13.0018 13.3284 13.3907 13.3284H25.6667V46.288ZM12.3017 45.9214H25.3001V13.6914H13.3981C13.1063 13.6914 12.8265 13.8073 12.6203 14.0136C12.414 14.2198 12.2981 14.4996 12.2981 14.7914L12.3017 45.9214Z" stroke="#F4F4F4"/>
<path d="M39.0207 46.288H25.3V13.3247H37.5614C37.9504 13.3247 38.3234 13.4792 38.5985 13.7543C38.8735 14.0293 39.028 14.4024 39.028 14.7914L39.0207 46.288ZM25.6557 45.9214H38.654V14.795C38.654 14.5033 38.5382 14.2235 38.3319 14.0172C38.1256 13.8109 37.8458 13.695 37.554 13.695H25.6667L25.6557 45.9214Z" stroke="#F4F4F4"/>
<path d="M42.2033 34.6059L41.0667 31.3683H43.4903L42.2033 34.6059ZM41.5947 31.735L42.229 33.5683L42.9623 31.735H41.5947Z" stroke="#F4F4F4"/>
<path d="M43.4207 27.4047H40.9971L42.2951 24.167L43.4207 27.4047ZM41.5397 27.038H42.9001L42.2694 25.2047L41.5397 27.038Z" stroke="#F4F4F4"/>
</svg>
