<svg width="44" height="45" viewBox="0 0 44 45" fill="none" xmlns="http://www.w3.org/2000/svg">
<path d="M27.1498 33.9995H15.8118C15.5445 34.0004 15.2868 33.901 15.0901 33.7212C14.8934 33.5414 14.7722 33.2945 14.7509 33.0298C14.5422 30.8725 13.4707 29.6006 12.3354 28.2514C10.9032 26.5473 9.27637 24.6149 9.02528 20.5568C8.91576 18.8089 9.16286 17.057 9.75173 15.4063C10.3406 13.7556 11.2591 12.2401 12.4521 10.9508C13.576 9.72732 14.9404 8.74566 16.461 8.06643C17.9817 7.3872 19.6263 7.0248 21.2934 7.00161C22.9519 6.97505 24.5991 7.27655 26.1391 7.88856C27.6792 8.50057 29.0813 9.41086 30.2639 10.5664C31.4464 11.722 32.3857 13.0997 33.0272 14.6195C33.6686 16.1392 33.9993 17.7705 34 19.4184C34 24.2741 32.2318 26.3857 30.6509 28.2514C29.5157 29.6006 28.4406 30.876 28.2391 33.0368C28.2157 33.3052 28.0898 33.5544 27.8872 33.7335C27.6847 33.9125 27.4208 34.0077 27.1498 33.9995V33.9995ZM21.2828 7.35297C19.6654 7.37695 18.07 7.72975 16.5951 8.38961C15.1202 9.04947 13.7969 10.0024 12.7068 11.1897C11.5469 12.4447 10.6538 13.9193 10.0808 15.5251C9.50778 17.131 9.26666 18.8351 9.37186 20.5357C9.61941 24.4779 11.1401 26.2803 12.6042 28.0265C13.7748 29.4319 14.8817 30.7319 15.0974 32.9946C15.11 33.1724 15.19 33.3387 15.3213 33.46C15.4526 33.5814 15.6254 33.6486 15.8047 33.6482H27.1498C27.3274 33.6488 27.4988 33.583 27.6298 33.4639C27.7609 33.3448 27.842 33.181 27.8571 33.0052C28.0728 30.7355 29.1798 29.4179 30.3539 28.0265C31.8816 26.2065 33.6181 24.1617 33.6181 19.4184C33.6178 17.818 33.2971 16.2336 32.6747 14.7575C32.0524 13.2813 31.1407 11.9429 29.9928 10.8201C28.8449 9.69733 27.4836 8.81257 25.9883 8.21733C24.493 7.62209 22.8935 7.32827 21.2828 7.35297V7.35297Z" stroke="#F4F4F4"/>
<path d="M27.2141 37H16.7825C16.5746 36.9992 16.3756 36.9262 16.229 36.7969C16.0823 36.6677 16 36.4927 16 36.3103V35.6897C16 35.5073 16.0823 35.3323 16.229 35.2031C16.3756 35.0738 16.5746 35.0008 16.7825 35H27.2141C27.4225 35 27.6224 35.0727 27.7698 35.202C27.9172 35.3313 28 35.5067 28 35.6897V36.3103C28 36.4933 27.9172 36.6687 27.7698 36.798C27.6224 36.9273 27.4225 37 27.2141 37ZM16.7825 35.2999C16.6652 35.3006 16.5531 35.3421 16.4706 35.4151C16.388 35.4881 16.3417 35.5868 16.3417 35.6897V36.3103C16.3417 36.4132 16.388 36.5119 16.4706 36.5849C16.5531 36.6579 16.6652 36.6994 16.7825 36.7001H27.2141C27.3319 36.7001 27.4449 36.6591 27.5282 36.586C27.6115 36.5129 27.6583 36.4137 27.6583 36.3103V35.6897C27.6583 35.5863 27.6115 35.4871 27.5282 35.414C27.4449 35.3409 27.3319 35.2999 27.2141 35.2999H16.7825Z" stroke="#F4F4F4"/>
<path d="M26.2056 40.9997H17.7774C17.6742 40.9998 17.572 40.9724 17.4768 40.9192C17.3816 40.866 17.2953 40.7881 17.2229 40.6899C17.1506 40.5918 17.0936 40.4754 17.0553 40.3476C17.0171 40.2198 16.9983 40.0832 17.0001 39.9456V39.0407C17.0001 38.7655 17.0819 38.5016 17.2276 38.3065C17.3733 38.1115 17.571 38.0014 17.7774 38.0002H26.2056C26.3093 37.9978 26.4122 38.0229 26.5085 38.0741C26.6048 38.1253 26.6925 38.2016 26.7664 38.2985C26.8404 38.3953 26.8991 38.5109 26.9392 38.6383C26.9793 38.7657 26.9999 38.9026 26.9999 39.0407V39.9456C27.0017 40.0851 26.9824 40.2237 26.9431 40.353C26.9038 40.4823 26.8453 40.5997 26.7712 40.6981C26.697 40.7966 26.6087 40.874 26.5115 40.9258C26.4143 40.9777 26.3103 41.0028 26.2056 40.9997V40.9997ZM17.7774 38.439C17.661 38.4402 17.5496 38.5027 17.4676 38.6129C17.3856 38.723 17.3396 38.872 17.3396 39.0272V39.9456C17.3396 40.1004 17.3857 40.2488 17.4678 40.3583C17.5499 40.4677 17.6613 40.5292 17.7774 40.5292H26.2056C26.2644 40.5316 26.323 40.5184 26.3778 40.4902C26.4327 40.462 26.4828 40.4194 26.5252 40.3651C26.5676 40.3107 26.6014 40.2456 26.6246 40.1735C26.6478 40.1015 26.66 40.024 26.6604 39.9456V39.0407C26.6604 38.8848 26.614 38.7352 26.5312 38.6249C26.4484 38.5146 26.3362 38.4526 26.2192 38.4526L17.7774 38.439Z" stroke="#F4F4F4"/>
<path d="M25.2052 44H18.7948C18.584 44 18.3818 43.9275 18.2328 43.7986C18.0837 43.6696 18 43.4947 18 43.3123V42.6877C18 42.5974 18.0206 42.508 18.0605 42.4245C18.1004 42.3411 18.159 42.2653 18.2328 42.2014C18.3066 42.1376 18.3942 42.0869 18.4906 42.0523C18.5871 42.0178 18.6904 42 18.7948 42H25.2052C25.4157 42.0008 25.6173 42.0735 25.7662 42.2023C25.9151 42.3311 25.9991 42.5055 26 42.6877V43.3123C25.9991 43.4945 25.9151 43.6689 25.7662 43.7977C25.6173 43.9265 25.4157 43.9992 25.2052 44V44ZM18.7948 42.3003C18.6761 42.3003 18.5622 42.3411 18.4782 42.4138C18.3942 42.4864 18.3471 42.5849 18.3471 42.6877V43.3123C18.3471 43.4151 18.3942 43.5136 18.4782 43.5862C18.5622 43.6589 18.6761 43.6997 18.7948 43.6997H25.2052C25.3239 43.6997 25.4378 43.6589 25.5218 43.5862C25.6058 43.5136 25.6529 43.4151 25.6529 43.3123V42.6877C25.6529 42.5849 25.6058 42.4864 25.5218 42.4138C25.4378 42.3411 25.3239 42.3003 25.2052 42.3003H18.7948Z" stroke="#F4F4F4"/>
<path d="M32.3496 30.8463L32.1521 31.1421L35.7367 33.5363L35.9343 33.2406L32.3496 30.8463Z" stroke="#F4F4F4"/>
<path d="M22 0V0V4V4V0Z" stroke="#F4F4F4"/>
<path d="M43 19H37V20H43V19Z" stroke="#F4F4F4"/>
<path d="M0 20H7V20H0V20Z" stroke="#F4F4F4"/>
<path d="M12.2824 30.7236L8.78662 34.2194L9.03811 34.4709L12.5339 30.9751L12.2824 30.7236Z" stroke="#F4F4F4"/>
<path d="M39.7342 2.8133L33.5293 8.57117L33.7712 8.83188L39.9761 3.07401L39.7342 2.8133Z" stroke="#F4F4F4"/>
<path d="M5.54647 2.84492L5.30151 3.10278L11.3303 8.82993L11.5753 8.57207L5.54647 2.84492Z" stroke="#F4F4F4"/>
</svg>
