<svg width="37" height="40" viewBox="0 0 37 40" fill="none" xmlns="http://www.w3.org/2000/svg">
<path fill-rule="evenodd" clip-rule="evenodd" d="M18.0527 30.9615C18.1609 31.1968 18.3799 31.3435 18.6187 31.3435C18.8588 31.3435 19.0764 31.1953 19.1846 30.96C20.6186 27.8488 24.4522 19.5449 26.7661 14.6543C29.3636 9.16391 25.9864 1.12726 18.6332 1.18536C10.7562 1.24637 8.32626 9.64178 10.5729 14.6543C12.6321 19.25 16.5845 27.7936 18.0527 30.9615Z" stroke="#F4F4F4" stroke-miterlimit="1.5" stroke-linecap="round" stroke-linejoin="round"/>
<path d="M18.6979 16.6884C21.639 16.6884 24.0232 14.0633 24.0232 10.825C24.0232 7.58679 21.639 4.96167 18.6979 4.96167C15.7568 4.96167 13.3726 7.58679 13.3726 10.825C13.3726 14.0633 15.7568 16.6884 18.6979 16.6884Z" stroke="#F4F4F4" stroke-width="0.5" stroke-miterlimit="1.5" stroke-linecap="round" stroke-linejoin="round"/>
<path d="M15.0851 25.1034H8.94051C8.57842 25.1034 8.24169 25.3047 8.04616 25.6416C6.92189 27.5751 3.05119 34.225 1.16834 37.4642C0.958329 37.823 0.943853 38.2815 1.13033 38.6562C1.3168 39.031 1.67344 39.2642 2.06268 39.2642C8.4698 39.2642 28.9023 39.2642 35.3964 39.2642C35.791 39.2642 36.1513 39.025 36.336 38.6423C36.5188 38.2615 36.4971 37.7971 36.2762 37.4383C34.2702 34.1771 30.1696 27.5114 29.0037 25.6157C28.8064 25.2947 28.4769 25.1034 28.1238 25.1034C26.5397 25.1034 22.1603 25.1034 22.1603 25.1034" stroke="#F4F4F4" stroke-miterlimit="1.5" stroke-linecap="round" stroke-linejoin="round"/>
<path d="M28.3186 26.0992C20.9285 27.9212 22.7334 31.7763 19.8911 34.1464C15.088 38.1491 6.83788 32.7271 1.479 38.3903" stroke="#F4F4F4" stroke-width="0.5" stroke-miterlimit="1.5" stroke-linecap="round" stroke-linejoin="round"/>
</svg>
