<svg width="55" height="55" viewBox="0 0 55 55" fill="none" xmlns="http://www.w3.org/2000/svg">
<path d="M20.5334 47.4724H17.1637C15.1571 47.4704 13.2333 46.6725 11.8145 45.2536C10.3956 43.8348 9.59764 41.9109 9.5957 39.9044V23.067C9.5957 22.3863 9.86612 21.7335 10.3475 21.2521C10.8288 20.7708 11.4816 20.5004 12.1624 20.5004H25.531C26.2118 20.5004 26.8646 20.7708 27.346 21.2521C27.8273 21.7335 28.0977 22.3863 28.0977 23.067V39.9044C28.0948 41.91 27.297 43.8327 25.8792 45.2512C24.4613 46.6698 22.539 47.4685 20.5334 47.4724V47.4724ZM12.166 20.8634C11.5826 20.8634 11.023 21.0952 10.6104 21.5077C10.1978 21.9203 9.96604 22.4799 9.96604 23.0634V39.9007C9.96798 41.81 10.7273 43.6406 12.0774 44.9907C13.4275 46.3408 15.2581 47.1001 17.1674 47.102H20.5334C22.4433 47.1011 24.2748 46.3422 25.6257 44.992C26.9766 43.6418 27.7364 41.8107 27.7384 39.9007V23.067C27.7384 22.4836 27.5066 21.924 27.094 21.5114C26.6814 21.0988 26.1219 20.867 25.5384 20.867L12.166 20.8634Z" stroke="#F4F4F4"/>
<path d="M24.5409 30.1657H13.1559C12.6602 30.1647 12.1852 29.9674 11.8347 29.6169C11.4842 29.2664 11.2869 28.7913 11.2859 28.2957V24.8453C11.2869 24.3497 11.4842 23.8746 11.8347 23.5241C12.1852 23.1736 12.6602 22.9763 13.1559 22.9753H24.5409C25.0368 22.9753 25.5125 23.1724 25.8632 23.5231C26.2139 23.8737 26.4109 24.3494 26.4109 24.8453V28.2957C26.4109 28.7916 26.2139 29.2673 25.8632 29.618C25.5125 29.9687 25.0368 30.1657 24.5409 30.1657V30.1657ZM13.1559 23.342C12.7575 23.343 12.3757 23.5017 12.0939 23.7834C11.8122 24.0651 11.6535 24.4469 11.6526 24.8453V28.2957C11.6535 28.6941 11.8122 29.0759 12.0939 29.3576C12.3757 29.6393 12.7575 29.798 13.1559 29.799H24.5409C24.9393 29.798 25.3211 29.6393 25.6028 29.3576C25.8846 29.0759 26.0433 28.6941 26.0442 28.2957V24.8453C26.0433 24.4469 25.8846 24.0651 25.6028 23.7834C25.3211 23.5017 24.9393 23.343 24.5409 23.342H13.1559Z" stroke="#F4F4F4"/>
<path d="M15.0335 38.4743C14.5258 38.4743 14.0296 38.3237 13.6075 38.0417C13.1854 37.7597 12.8564 37.3588 12.6622 36.8898C12.4679 36.4208 12.4171 35.9048 12.5161 35.4069C12.6152 34.909 12.8596 34.4517 13.2186 34.0927C13.5775 33.7337 14.0348 33.4893 14.5327 33.3903C15.0306 33.2912 15.5467 33.3421 16.0157 33.5363C16.4847 33.7306 16.8855 34.0596 17.1676 34.4816C17.4496 34.9037 17.6001 35.4 17.6001 35.9076C17.6001 36.5883 17.3297 37.2412 16.8484 37.7225C16.367 38.2039 15.7142 38.4743 15.0335 38.4743ZM15.0335 33.6783C14.5983 33.6783 14.173 33.8073 13.8112 34.049C13.4494 34.2908 13.1674 34.6344 13.0009 35.0364C12.8344 35.4384 12.7908 35.8807 12.8757 36.3075C12.9606 36.7342 13.1702 37.1262 13.4778 37.4339C13.7855 37.7416 14.1775 37.9511 14.6043 38.036C15.031 38.1209 15.4734 38.0773 15.8754 37.9108C16.2774 37.7443 16.621 37.4623 16.8627 37.1005C17.1044 36.7387 17.2335 36.3134 17.2335 35.8783C17.2335 35.2948 17.0017 34.7352 16.5891 34.3226C16.1765 33.9101 15.6169 33.6783 15.0335 33.6783V33.6783Z" stroke="#F4F4F4"/>
<path d="M22.6599 43.2666C22.1523 43.2666 21.6561 43.1161 21.234 42.8341C20.8119 42.552 20.4829 42.1512 20.2886 41.6822C20.0944 41.2132 20.0435 40.6971 20.1426 40.1992C20.2416 39.7014 20.4861 39.244 20.845 38.8851C21.204 38.5261 21.6613 38.2817 22.1592 38.1826C22.6571 38.0836 23.1732 38.1344 23.6422 38.3287C24.1111 38.5229 24.512 38.8519 24.794 39.274C25.0761 39.6961 25.2266 40.1923 25.2266 40.7C25.2218 41.3792 24.9498 42.0293 24.4695 42.5096C23.9892 42.9899 23.3392 43.2618 22.6599 43.2666V43.2666ZM22.6599 38.4706C22.2248 38.4706 21.7995 38.5997 21.4377 38.8414C21.0759 39.0831 20.7939 39.4267 20.6274 39.8287C20.4609 40.2307 20.4173 40.6731 20.5022 41.0998C20.5871 41.5266 20.7966 41.9186 21.1043 42.2263C21.412 42.5339 21.804 42.7435 22.2307 42.8284C22.6575 42.9133 23.0998 42.8697 23.5018 42.7032C23.9038 42.5367 24.2474 42.2547 24.4892 41.8929C24.7309 41.5311 24.8599 41.1058 24.8599 40.6706C24.859 40.0878 24.6267 39.5292 24.2143 39.1174C23.8018 38.7056 23.2428 38.4743 22.6599 38.4743V38.4706Z" stroke="#F4F4F4"/>
<path d="M43.8717 25.1754H40.0474C39.6584 25.1754 39.2853 25.0209 39.0103 24.7458C38.7352 24.4708 38.5807 24.0977 38.5807 23.7087V19.2464C38.5657 18.7923 38.6423 18.3399 38.8057 17.916C38.9692 17.4922 39.2162 17.1055 39.5321 16.779C39.848 16.4525 40.2264 16.1929 40.6446 16.0156C41.0629 15.8383 41.5126 15.7469 41.9669 15.7469C42.4212 15.7469 42.8708 15.8383 43.2891 16.0156C43.7074 16.1929 44.0857 16.4525 44.4016 16.779C44.7175 17.1055 44.9645 17.4922 45.128 17.916C45.2914 18.3399 45.368 18.7923 45.353 19.2464V23.7014C45.354 23.8959 45.3163 24.0886 45.2421 24.2683C45.1679 24.4481 45.0587 24.6113 44.9209 24.7485C44.783 24.8856 44.6193 24.994 44.4392 25.0673C44.259 25.1406 44.0661 25.1773 43.8717 25.1754V25.1754ZM41.9577 16.2251C41.1573 16.227 40.3903 16.5461 39.8247 17.1123C39.2591 17.6786 38.941 18.446 38.94 19.2464V23.7014C38.94 23.9931 39.0559 24.2729 39.2622 24.4792C39.4685 24.6855 39.7483 24.8014 40.04 24.8014H43.8644C44.1561 24.8014 44.4359 24.6855 44.6422 24.4792C44.8485 24.2729 44.9644 23.9931 44.9644 23.7014V19.2464C44.9634 18.4479 44.6468 17.6822 44.0836 17.1162C43.5203 16.5502 42.7562 16.2299 41.9577 16.2251V16.2251Z" stroke="#F4F4F4"/>
<path d="M41.9576 45.5033C41.6228 45.5023 41.3019 45.3686 41.0655 45.1315C40.8291 44.8944 40.6963 44.5732 40.6963 44.2383V28.996H43.2227V44.2383C43.2227 44.5738 43.0894 44.8956 42.8521 45.1328C42.6149 45.37 42.2931 45.5033 41.9576 45.5033V45.5033ZM41.063 29.37V44.2456C41.0551 44.3682 41.0725 44.4911 41.114 44.6066C41.1555 44.7222 41.2203 44.828 41.3043 44.9176C41.3883 45.0072 41.4898 45.0786 41.6025 45.1274C41.7152 45.1762 41.8367 45.2013 41.9595 45.2013C42.0823 45.2013 42.2038 45.1762 42.3165 45.1274C42.4292 45.0786 42.5306 45.0072 42.6147 44.9176C42.6987 44.828 42.7634 44.7222 42.8049 44.6066C42.8465 44.4911 42.8638 44.3682 42.856 44.2456V29.3626L41.063 29.37Z" stroke="#F4F4F4"/>
<path d="M44.4327 26.8474H39.4863V24.8087H44.4327V26.8474ZM39.853 26.4807H44.066V25.1754H39.853V26.4807Z" stroke="#F4F4F4"/>
<path d="M45.056 29.3664H38.8667V26.4807H45.0597L45.056 29.3664ZM39.2297 28.9997H44.6894V26.8474H39.2334L39.2297 28.9997Z" stroke="#F4F4F4"/>
<path d="M19.1291 20.6616H18.7625C18.7625 13.2 20.1668 6.3103 30.3418 6.3103C40.6085 6.3103 41.7745 11.8653 41.7745 16.0416H41.4078C41.4078 12.0083 40.2638 6.67697 30.3418 6.67697C20.4895 6.67697 19.1291 13.398 19.1291 20.6616Z" stroke="#F4F4F4"/>
<path d="M17.8786 20.68H17.512C17.512 12.6757 19.0593 5.28003 30.294 5.28003C41.5286 5.28003 42.856 11.3667 42.856 15.961H42.4893C42.4893 11.528 41.228 5.63936 30.294 5.63936C18.8356 5.63936 17.8786 13.4017 17.8786 20.68Z" stroke="#F4F4F4"/>
</svg>
