<svg width="25" height="41" viewBox="0 0 25 41" fill="none" xmlns="http://www.w3.org/2000/svg">
<path fill-rule="evenodd" clip-rule="evenodd" d="M11.3024 38.8628C11.517 39.324 11.9478 39.6147 12.4179 39.6128C12.8879 39.6128 13.3187 39.3222 13.5316 38.8609C15.6126 34.3496 20.1356 24.5583 22.9353 18.6408C26.2884 11.5532 21.9288 1.17882 12.4366 1.25382C2.2683 1.33257 -0.868521 12.1701 2.0316 18.6408C4.52641 24.2077 9.17374 34.2653 11.3024 38.8628Z" stroke="#F4F4F4" stroke-miterlimit="1.5" stroke-linecap="round" stroke-linejoin="round"/>
<path d="M12.5179 21.2644C16.3146 21.2644 19.3923 17.8757 19.3923 13.6954C19.3923 9.5152 16.3146 6.12646 12.5179 6.12646C8.72131 6.12646 5.64355 9.5152 5.64355 13.6954C5.64355 17.8757 8.72131 21.2644 12.5179 21.2644Z" stroke="#F4F4F4" stroke-width="0.5" stroke-miterlimit="1.5" stroke-linecap="round" stroke-linejoin="round"/>
</svg>
