<svg width="45" height="49" viewBox="0 0 45 49" fill="none" xmlns="http://www.w3.org/2000/svg">
<path d="M16.6085 14.0619L12.2358 18.8764L6.87282 12.9716L5.03136 14.9991L5.03149 4.99977L14.1133 4.99961L12.2718 7.02713L16.6763 11.8767" stroke="#F4F4F4" stroke-miterlimit="1.5" stroke-linecap="round" stroke-linejoin="round"/>
<path d="M31.8021 17.7556L27.4294 12.9411L32.7923 7.0363L30.9508 5.00878L40.0326 5.00892L40.0327 15.0083L38.1912 12.9808L33.7867 17.8303" stroke="#F4F4F4" stroke-miterlimit="1.5" stroke-linecap="round" stroke-linejoin="round"/>
<path d="M28.4474 34.8064L32.8202 29.9919L38.1831 35.8967L40.0245 33.8692L40.0244 43.8685L30.9427 43.8687L32.7841 41.8412L28.3796 36.9916" stroke="#F4F4F4" stroke-miterlimit="1.5" stroke-linecap="round" stroke-linejoin="round"/>
<path d="M13.2538 31.1126L17.6266 35.9272L12.2636 41.832L14.1051 43.8595L5.02335 43.8594L5.02319 33.86L6.86466 35.8875L11.2692 31.038" stroke="#F4F4F4" stroke-miterlimit="1.5" stroke-linecap="round" stroke-linejoin="round"/>
</svg>
