<svg width="38" height="38" viewBox="0 0 38 38" fill="none" xmlns="http://www.w3.org/2000/svg">
<path d="M11.2386 37.0121C8.58756 37.0121 5.73856 35.4537 3.90523 32.9567C2.14156 30.5624 1.66856 27.7647 2.60723 25.2787C3.34056 23.8121 4.3379 24.2191 5.4819 24.7031C7.31523 25.4841 10.1202 26.6611 14.7696 21.9567C14.0247 20.854 13.7344 19.5063 13.9592 18.1947C8.09256 18.4074 1.18456 14.4694 1.01223 11.6424C0.843564 8.88138 2.43123 5.84538 5.04556 3.90938C7.4399 2.14572 10.2376 1.67272 12.7236 2.61138C14.1902 3.34472 13.7832 4.34205 13.2992 5.48605C12.5292 7.33772 11.3449 10.1427 16.1042 14.8177C17.1851 14.062 18.5136 13.7473 19.8186 13.9377C19.6169 8.07105 23.5586 1.18505 26.3709 1.01272C29.1832 0.840384 32.1716 2.43172 34.1076 5.04605C35.8712 7.44038 36.3442 10.2381 35.4056 12.7241C34.6722 14.1907 33.6749 13.7837 32.5309 13.2997C30.6976 12.5187 27.8999 11.3417 23.2616 16.0241C24.0495 17.1161 24.3809 18.4721 24.1856 19.8044C30.1036 19.6577 36.8282 23.5261 37.0006 26.3604C37.1692 29.125 35.5816 32.1611 32.9672 34.0971C30.5729 35.8607 27.7752 36.3337 25.2892 35.3951C23.8226 34.6617 24.2296 33.6644 24.7136 32.5204C25.4909 30.6871 26.6606 27.9077 22.0332 23.295C20.9208 24.0726 19.5469 24.3809 18.2089 24.1531C18.3702 29.9611 14.4359 36.8177 11.6566 36.9864C11.5123 37.0035 11.373 37.0121 11.2386 37.0121ZM3.9749 24.6151C3.57523 24.6151 3.24156 24.8277 2.95556 25.4254C2.06823 27.7757 2.52656 30.4487 4.2169 32.7587C6.07956 35.2851 8.98356 36.8177 11.6346 36.6527C14.2856 36.4877 18.0989 29.6567 17.8349 23.9661V23.7314L18.0696 23.779C18.7389 23.9195 19.4304 23.9156 20.0981 23.7676C20.7658 23.6197 21.3942 23.3311 21.9416 22.9211L22.0699 22.8257L22.1799 22.9357C27.1152 27.7867 25.8722 30.7274 25.0509 32.6744C24.5559 33.8441 24.2846 34.5077 25.4176 35.0687C27.7679 35.9561 30.4409 35.5014 32.7509 33.8111C35.2772 31.9484 36.8062 29.0444 36.6449 26.3934C36.4836 23.7314 29.6782 19.9401 23.9876 20.1894H23.7529L23.7969 19.9621C23.9214 19.2957 23.9037 18.6106 23.7451 17.9516C23.5865 17.2926 23.2906 16.6745 22.8766 16.1377L22.7776 16.0131L22.8912 15.8994C27.7679 10.909 30.7196 12.1557 32.6739 12.9661C33.8436 13.4611 34.5072 13.7324 35.0719 12.5811C35.9592 10.2307 35.5009 7.55772 33.8106 5.26605C31.9479 2.73972 29.0439 1.21072 26.3966 1.37205C23.7492 1.53338 19.8956 8.54405 20.1962 14.1504V14.3851L19.9689 14.3374C19.3126 14.2124 18.6375 14.2248 17.9863 14.3738C17.335 14.5227 16.7217 14.8049 16.1849 15.2027L16.0566 15.2981L15.9466 15.1881C10.8939 10.2711 12.1479 7.30472 12.9766 5.34305C13.4716 4.17338 13.7466 3.50972 12.6099 2.94505C10.2596 2.05772 7.58656 2.51605 5.27656 4.20638C2.75023 6.06905 1.22123 8.97305 1.38256 11.6204C1.5439 14.2677 8.55456 18.1287 14.1756 17.8171H14.4176L14.3662 18.0517C14.225 18.7086 14.2224 19.3878 14.3588 20.0457C14.4952 20.7036 14.7675 21.3258 15.1582 21.8724L15.2499 21.9971L15.1436 22.107C10.2522 27.1157 7.30056 25.8654 5.34256 25.0404C4.91638 24.8165 4.45288 24.6724 3.9749 24.6151Z" fill="#F4F4F4" stroke="#F4F4F4"/>
</svg>
